{
  "accessors": [
    {
      "bufferView": 2,
      "componentType": 5126,
      "count": 8014,
      "max": [
        88.6529769897461,
        132.43380737304688,
        219.4375
      ],
      "min": [
        -88.6529769897461,
        20.43381118774414,
        -219.4375
      ],
      "type": "VEC3"
    },
    {
      "bufferView": 2,
      "byteOffset": 96168,
      "componentType": 5126,
      "count": 8014,
      "max": [
        1.0,
        1.0,
        1.0
      ],
      "min": [
        -1.0,
        -1.0,
        -1.0
      ],
      "type": "VEC3"
    },
    {
      "bufferView": 1,
      "componentType": 5126,
      "count": 8014,
      "max": [
        0.7390000224113464,
        0.9900000095367432
      ],
      "min": [
        0.0,
        0.0
      ],
      "type": "VEC2"
    },
    {
      "bufferView": 0,
      "componentType": 5125,
      "count": 8784,
      "type": "SCALAR"
    },
    {
      "bufferView": 2,
      "byteOffset": 192336,
      "componentType": 5126,
      "count": 156,
      "max": [
        74.6358871459961,
        126.98040008544922,
        137.33438110351563
      ],
      "min": [
        -74.6358871459961,
        86.98957824707031,
        -90.05667877197266
      ],
      "type": "VEC3"
    },
    {
      "bufferView": 2,
      "byteOffset": 194208,
      "componentType": 5126,
      "count": 156,
      "max": [
        0.969563901424408,
        0.8101630806922913,
        0.6210172176361084
      ],
      "min": [
        -0.969563901424408,
        -0.8101630806922913,
        -0.6210172176361084
      ],
      "type": "VEC3"
    },
    {
      "bufferView": 1,
      "byteOffset": 64112,
      "componentType": 5126,
      "count": 156,
      "max": [
        0.38499999046325684,
        0.9649999737739563
      ],
      "min": [
        0.38499999046325684,
        0.9649999737739563
      ],
      "type": "VEC2"
    },
    {
      "bufferView": 0,
      "byteOffset": 35136,
      "componentType": 5125,
      "count": 156,
      "type": "SCALAR"
    },
    {
      "bufferView": 2,
      "byteOffset": 196080,
      "componentType": 5126,
      "count": 679,
      "max": [
        8.000001907348633,
        30.442617416381836,
        32.09649658203125
      ],
      "min": [
        -12.499998092651367,
        -30.42500114440918,
        -31.90349578857422
      ],
      "type": "VEC3"
    },
    {
      "bufferView": 2,
      "byteOffset": 204228,
      "componentType": 5126,
      "count": 679,
      "max": [
        1.0,
        1.0,
        0.9510565996170044
      ],
      "min": [
        -1.0,
        -1.0,
        -0.951059103012085
      ],
      "type": "VEC3"
    },
    {
      "bufferView": 1,
      "byteOffset": 65360,
      "componentType": 5126,
      "count": 679,
      "max": [
        0.029999999329447746,
        0.7899999618530273
      ],
      "min": [
        0.009999999776482582,
        0.5049999952316284
      ],
      "type": "VEC2"
    },
    {
      "bufferView": 0,
      "byteOffset": 35760,
      "componentType": 5125,
      "count": 828,
      "type": "SCALAR"
    },
    {
      "bufferView": 2,
      "byteOffset": 212376,
      "componentType": 5126,
      "count": 685,
      "max": [
        12.499998092651367,
        30.442617416381836,
        32.09649658203125
      ],
      "min": [
        -8.000001907348633,
        -30.42500114440918,
        -31.90349769592285
      ],
      "type": "VEC3"
    },
    {
      "bufferView": 2,
      "byteOffset": 220596,
      "componentType": 5126,
      "count": 685,
      "max": [
        1.0,
        1.0,
        0.9510565996170044
      ],
      "min": [
        -1.0,
        -1.0,
        -0.951059103012085
      ],
      "type": "VEC3"
    },
    {
      "bufferView": 1,
      "byteOffset": 70792,
      "componentType": 5126,
      "count": 685,
      "max": [
        0.029999999329447746,
        0.7899999618530273
      ],
      "min": [
        0.009999999776482582,
        0.5049999952316284
      ],
      "type": "VEC2"
    },
    {
      "bufferView": 0,
      "byteOffset": 39072,
      "componentType": 5125,
      "count": 828,
      "type": "SCALAR"
    },
    {
      "bufferView": 2,
      "byteOffset": 228816,
      "componentType": 5126,
      "count": 681,
      "max": [
        12.5,
        30.442142486572266,
        32.02817916870117
      ],
      "min": [
        -8.0,
        -30.42547607421875,
        -31.97182273864746
      ],
      "type": "VEC3"
    },
    {
      "bufferView": 2,
      "byteOffset": 236988,
      "componentType": 5126,
      "count": 681,
      "max": [
        1.0,
        1.0,
        0.9510574340820313
      ],
      "min": [
        -1.0,
        -1.0,
        -0.9510583281517029
      ],
      "type": "VEC3"
    },
    {
      "bufferView": 1,
      "byteOffset": 76272,
      "componentType": 5126,
      "count": 681,
      "max": [
        0.029999999329447746,
        0.7899999618530273
      ],
      "min": [
        0.009999999776482582,
        0.5049999952316284
      ],
      "type": "VEC2"
    },
    {
      "bufferView": 0,
      "byteOffset": 42384,
      "componentType": 5125,
      "count": 828,
      "type": "SCALAR"
    },
    {
      "bufferView": 2,
      "byteOffset": 245160,
      "componentType": 5126,
      "count": 683,
      "max": [
        8.000001907348633,
        30.442617416381836,
        32.028480529785156
      ],
      "min": [
        -12.499998092651367,
        -30.42500114440918,
        -31.97151756286621
      ],
      "type": "VEC3"
    },
    {
      "bufferView": 2,
      "byteOffset": 253356,
      "componentType": 5126,
      "count": 683,
      "max": [
        1.0,
        1.0,
        0.9510574340820313
      ],
      "min": [
        -1.0,
        -1.0,
        -0.9510583281517029
      ],
      "type": "VEC3"
    },
    {
      "bufferView": 1,
      "byteOffset": 81720,
      "componentType": 5126,
      "count": 683,
      "max": [
        0.029999999329447746,
        0.7899999618530273
      ],
      "min": [
        0.009999999776482582,
        0.5049999952316284
      ],
      "type": "VEC2"
    },
    {
      "bufferView": 0,
      "byteOffset": 45696,
      "componentType": 5125,
      "count": 828,
      "type": "SCALAR"
    },
    {
      "bufferView": 2,
      "byteOffset": 261552,
      "componentType": 5126,
      "count": 530,
      "max": [
        -16.5,
        101.63111877441406,
        -32.73748016357422
      ],
      "min": [
        -56.5,
        65.08287811279297,
        -52.679115295410156
      ],
      "type": "VEC3"
    },
    {
      "bufferView": 2,
      "byteOffset": 267912,
      "componentType": 5126,
      "count": 530,
      "max": [
        0.9659260511398315,
        0.8837540149688721,
        0.9901416897773743
      ],
      "min": [
        -0.9659260511398315,
        -0.860647976398468,
        -0.8910068273544312
      ],
      "type": "VEC3"
    },
    {
      "bufferView": 1,
      "byteOffset": 87184,
      "componentType": 5126,
      "count": 530,
      "max": [
        0.029999999329447746,
        0.7300000190734863
      ],
      "min": [
        0.019999999552965164,
        0.6200000047683716
      ],
      "type": "VEC2"
    },
    {
      "bufferView": 0,
      "byteOffset": 49008,
      "componentType": 5125,
      "count": 558,
      "type": "SCALAR"
    }
  ],
  "asset": {
    "extras": {
      
    },
    "generator": "Sketchfab-12.66.0",
    "version": "2.0"
  },
  "bufferViews": [
    {
      "buffer": 0,
      "byteLength": 51240,
      "name": "floatBufferViews",
      "target": 34963
    },
    {
      "buffer": 0,
      "byteLength": 91424,
      "byteOffset": 51240,
      "byteStride": 8,
      "name": "floatBufferViews",
      "target": 34962
    },
    {
      "buffer": 0,
      "byteLength": 274272,
      "byteOffset": 142664,
      "byteStride": 12,
      "name": "floatBufferViews",
      "target": 34962
    }
  ],
  "buffers": [
    {
      "byteLength": 416936,
      "uri": "scene.bin"
    }
  ],
  "extensionsUsed": [
    "KHR_materials_transmission"
  ],
  "images": [
    {
      "uri": "textures/RGB_texture_baseColor.png"
    }
  ],
  "materials": [
    {
      "name": "RGB_texture",
      "pbrMetallicRoughness": {
        "baseColorTexture": {
          "index": 0
        },
        "metallicFactor": 0.0,
        "roughnessFactor": 0.6
      }
    },
    {
      "alphaMode": "BLEND",
      "extensions": {
        "KHR_materials_transmission": {
          "transmissionFactor": 0.8090716977662678
        }
      },
      "name": "Window",
      "pbrMetallicRoughness": {
        "baseColorFactor": [
          0.8,
          0.8,
          0.8,
          0.25
        ],
        "metallicFactor": 0.0,
        "roughnessFactor": 0.9524317153998911
      }
    }
  ],
  "meshes": [
    {
      "name": "Peugeot_504_coupe_RGB_texture_0",
      "primitives": [
        {
          "attributes": {
            "NORMAL": 1,
            "POSITION": 0,
            "TEXCOORD_0": 2
          },
          "indices": 3,
          "material": 0,
          "mode": 4
        }
      ]
    },
    {
      "name": "Window_Window_0",
      "primitives": [
        {
          "attributes": {
            "NORMAL": 5,
            "POSITION": 4,
            "TEXCOORD_0": 6
          },
          "indices": 7,
          "material": 1,
          "mode": 4
        }
      ]
    },
    {
      "name": "front_wheel_left_RGB_texture_0",
      "primitives": [
        {
          "attributes": {
            "NORMAL": 9,
            "POSITION": 8,
            "TEXCOORD_0": 10
          },
          "indices": 11,
          "material": 0,
          "mode": 4
        }
      ]
    },
    {
      "name": "front_wheel_right_RGB_texture_0",
      "primitives": [
        {
          "attributes": {
            "NORMAL": 13,
            "POSITION": 12,
            "TEXCOORD_0": 14
          },
          "indices": 15,
          "material": 0,
          "mode": 4
        }
      ]
    },
    {
      "name": "rear_wheel_left_RGB_texture_0",
      "primitives": [
        {
          "attributes": {
            "NORMAL": 17,
            "POSITION": 16,
            "TEXCOORD_0": 18
          },
          "indices": 19,
          "material": 0,
          "mode": 4
        }
      ]
    },
    {
      "name": "rear_wheel_right_RGB_texture_0",
      "primitives": [
        {
          "attributes": {
            "NORMAL": 21,
            "POSITION": 20,
            "TEXCOORD_0": 22
          },
          "indices": 23,
          "material": 0,
          "mode": 4
        }
      ]
    },
    {
      "name": "steering_wheel_RGB_texture_0",
      "primitives": [
        {
          "attributes": {
            "NORMAL": 25,
            "POSITION": 24,
            "TEXCOORD_0": 26
          },
          "indices": 27,
          "material": 0,
          "mode": 4
        }
      ]
    }
  ],
  "nodes": [
    {
      "children": [
        1
      ],
      "matrix": [
        0.010791562497615814,
        0.0,
        0.0,
        0.0,
        0.0,
        2.3962082313068876e-18,
        -0.010791562497615814,
        0.0,
        0.0,
        0.010791562497615814,
        2.3962082313068876e-18,
        0.0,
        0.0,
        0.0,
        0.0,
        1.0
      ],
      "name": "Sketchfab_model"
    },
    {
      "children": [
        2
      ],
      "matrix": [
        1.0,
        0.0,
        0.0,
        0.0,
        0.0,
        0.0,
        1.0,
        0.0,
        0.0,
        -1.0,
        0.0,
        0.0,
        0.0,
        0.0,
        0.0,
        1.0
      ],
      "name": "dc9ae474b3c24d349bc875ce0df8038b.fbx"
    },
    {
      "children": [
        3,
        5,
        7,
        9,
        11,
        13,
        15
      ],
      "name": "RootNode"
    },
    {
      "children": [
        4
      ],
      "matrix": [
        -1.0,
        -1.2246467991473535e-16,
        1.224646799147353e-16,
        0.0,
        -1.2246467991473535e-16,
        1.0,
        -1.2246467991473535e-16,
        0.0,
        -1.224646799147353e-16,
        -1.2246467991473535e-16,
        -1.0,
        0.0,
        0.0,
        0.0,
        0.0,
        1.0
      ],
      "name": "Peugeot_504_coupe"
    },
    {
      "mesh": 0,
      "name": "Peugeot_504_coupe_RGB_texture_0"
    },
    {
      "children": [
        6
      ],
      "matrix": [
        -1.0,
        -1.2246467991473535e-16,
        1.224646799147353e-16,
        0.0,
        -1.2246467991473535e-16,
        1.0,
        -1.2246467991473535e-16,
        0.0,
        -1.224646799147353e-16,
        -1.2246467991473535e-16,
        -1.0,
        0.0,
        0.0,
        0.0,
        0.0,
        1.0
      ],
      "name": "Window"
    },
    {
      "mesh": 1,
      "name": "Window_Window_0"
    },
    {
      "children": [
        8
      ],
      "matrix": [
        -1.0,
        -1.2246467991473535e-16,
        1.224646799147353e-16,
        0.0,
        -1.2246467991473535e-16,
        1.0,
        -1.2246467991473535e-16,
        0.0,
        -1.224646799147353e-16,
        -1.2246467991473535e-16,
        -1.0,
        0.0,
        70.0,
        30.42500114440918,
        148.03399658203125,
        1.0
      ],
      "name": "front_wheel_left"
    },
    {
      "mesh": 2,
      "name": "front_wheel_left_RGB_texture_0"
    },
    {
      "children": [
        10
      ],
      "matrix": [
        -1.0,
        -1.2246467991473535e-16,
        1.224646799147353e-16,
        0.0,
        -1.2246467991473535e-16,
        1.0,
        -1.2246467991473535e-16,
        0.0,
        -1.224646799147353e-16,
        -1.2246467991473535e-16,
        -1.0,
        0.0,
        -70.0,
        30.42500114440918,
        148.03399658203125,
        1.0
      ],
      "name": "front_wheel_right"
    },
    {
      "mesh": 3,
      "name": "front_wheel_right_RGB_texture_0"
    },
    {
      "children": [
        12
      ],
      "matrix": [
        -1.0,
        -1.2246467991473535e-16,
        1.224646799147353e-16,
        0.0,
        -1.2246467991473535e-16,
        1.0,
        -1.2246467991473535e-16,
        0.0,
        -1.224646799147353e-16,
        -1.2246467991473535e-16,
        -1.0,
        0.0,
        -70.0,
        30.42547607421875,
        -108.03430938720703,
        1.0
      ],
      "name": "rear_wheel_left"
    },
    {
      "mesh": 4,
      "name": "rear_wheel_left_RGB_texture_0"
    },
    {
      "children": [
        14
      ],
      "matrix": [
        -1.0,
        -1.2246467991473535e-16,
        1.224646799147353e-16,
        0.0,
        -1.2246467991473535e-16,
        1.0,
        -1.2246467991473535e-16,
        0.0,
        -1.224646799147353e-16,
        -1.2246467991473535e-16,
        -1.0,
        0.0,
        70.0,
        30.42500114440918,
        -108.03400421142578,
        1.0
      ],
      "name": "rear_wheel_right"
    },
    {
      "mesh": 5,
      "name": "rear_wheel_right_RGB_texture_0"
    },
    {
      "children": [
        16
      ],
      "matrix": [
        -1.0,
        -1.2246467991473535e-16,
        1.224646799147353e-16,
        0.0,
        -1.2246467991473535e-16,
        1.0,
        -1.2246467991473535e-16,
        0.0,
        -1.224646799147353e-16,
        -1.2246467991473535e-16,
        -1.0,
        0.0,
        0.0,
        0.0,
        0.0,
        1.0
      ],
      "name": "steering_wheel"
    },
    {
      "mesh": 6,
      "name": "steering_wheel_RGB_texture_0"
    }
  ],
  "samplers": [
    {
      "magFilter": 9729,
      "minFilter": 9987,
      "wrapS": 10497,
      "wrapT": 10497
    }
  ],
  "scene": 0,
  "scenes": [
    {
      "name": "Sketchfab_Scene",
      "nodes": [
        0
      ]
    }
  ],
  "textures": [
    {
      "sampler": 0,
      "source": 0
    }
  ]
}
